<svg width="159" height="38" viewBox="0 0 159 38" fill="none" xmlns="http://www.w3.org/2000/svg">
<path d="M61.6334 17.1753C58.5525 17.1753 57.0098 15.7782 57.0098 12.9795C57.0098 10.2308 58.5525 8.85645 61.6334 8.85645H68.1046L67.1808 12.5562H61.6334C61.019 12.5562 60.7096 12.6973 60.7096 12.9795C60.7096 13.3117 61.019 13.4801 61.6334 13.4801H64.4048C67.4857 13.4801 69.0285 14.8544 69.0285 17.6031C69.0285 20.4018 67.4857 21.7989 64.4048 21.7989H57.9336L58.8574 18.0991H64.4048C65.0192 18.0991 65.3287 17.9308 65.3287 17.5985C65.3287 17.3164 65.0192 17.1753 64.4048 17.1753H61.6334Z" fill="url(#paint0_linear_405_346)"/>
<path d="M74.6979 13.4801L78.3977 8.85645H83.0213L77.715 15.3277L83.0213 21.7989H78.3977L74.6979 17.1753V21.7989H70.998V8.85645H74.6979V13.4801Z" fill="url(#paint1_linear_405_346)"/>
<path d="M87.0709 16.2515L82.4473 8.85645H86.3928L88.9185 12.5562L91.4442 8.85645H95.3898L90.7661 16.2515V21.7989H87.0663V16.2515H87.0709Z" fill="url(#paint2_linear_405_346)"/>
<path d="M105.935 8.85645L105.011 12.5562H100.387V13.4801H105.935L105.011 17.1799H100.387V21.8035H96.6875V8.86099H105.935V8.85645Z" fill="url(#paint3_linear_405_346)"/>
<path d="M111.524 8.85645V21.7989H107.824V8.85645H111.524Z" fill="url(#paint4_linear_405_346)"/>
<path d="M121.945 21.7989L118.245 15.6599V21.7989H114.545V8.85645H118.245L121.945 15.3277V8.85645H125.644V21.7989H121.945Z" fill="url(#paint5_linear_405_346)"/>
<path d="M132.368 8.85645V21.7989H128.668V8.85645H132.368Z" fill="url(#paint6_linear_405_346)"/>
<path d="M141.083 12.5514V21.7986H137.383V12.5514H134.611V8.85156H143.859L142.935 12.5514H141.083Z" fill="url(#paint7_linear_405_346)"/>
<path d="M149.682 16.2515L145.059 8.85645H149.004L151.53 12.5562L154.056 8.85645H158.001L153.377 16.2515V21.7989H149.678V16.2515H149.682Z" fill="url(#paint8_linear_405_346)"/>
<path d="M62.8182 29.6082L63.469 30.259L62.1265 31.6014L61.6168 31.0918C61.1117 31.4331 60.5383 31.6014 59.892 31.6014C59.0274 31.6014 58.2902 31.2965 57.6803 30.6867C57.0705 30.0769 56.7656 29.3397 56.7656 28.475C56.7656 27.6104 57.0705 26.8732 57.6803 26.2634C58.2902 25.6535 59.0274 25.3486 59.892 25.3486C60.7567 25.3486 61.4939 25.6535 62.1037 26.2634C62.7135 26.8732 63.0184 27.6104 63.0184 28.475C63.023 28.8801 62.9547 29.2578 62.8182 29.6082ZM60.8432 29.4171C61.1071 29.1531 61.2345 28.8391 61.2345 28.4705C61.2345 28.1019 61.1026 27.7833 60.8432 27.5239C60.5792 27.26 60.2652 27.1326 59.8966 27.1326C59.528 27.1326 59.2094 27.2645 58.95 27.5239C58.6861 27.7879 58.5586 28.1019 58.5586 28.4705C58.5586 28.8391 58.6906 29.1577 58.95 29.4171C59.214 29.681 59.528 29.8084 59.8966 29.8084C60.2652 29.8084 60.5792 29.681 60.8432 29.4171Z" fill="url(#paint9_linear_405_346)"/>
<path d="M65.3809 28.4711V25.3447H67.1693V28.4711C67.1693 29.3631 67.4651 29.8136 68.0613 29.8136C68.6574 29.8136 68.9532 29.3676 68.9532 28.4711V25.3447H70.7417V28.4711C70.7417 30.5554 69.8498 31.5975 68.0613 31.5975C66.2728 31.5975 65.3809 30.5554 65.3809 28.4711Z" fill="url(#paint10_linear_405_346)"/>
<path d="M75.0971 25.3447V31.6021H73.3086V25.3447H75.0971Z" fill="url(#paint11_linear_405_346)"/>
<path d="M82.3094 25.3447L81.8634 27.1332H80.5209C80.1523 27.1332 79.8338 27.2652 79.5744 27.5246C79.3104 27.7885 79.183 28.1025 79.183 28.4711C79.183 28.8397 79.315 29.1583 79.5744 29.4177C79.8383 29.6816 80.1523 29.8091 80.5209 29.8091H82.3094V31.5975H80.5209C79.6563 31.5975 78.9191 31.2926 78.3092 30.6828C77.6994 30.073 77.3945 29.3358 77.3945 28.4711C77.3945 27.6065 77.6994 26.8692 78.3092 26.2594C78.9191 25.6496 79.6563 25.3447 80.5209 25.3447H82.3094Z" fill="url(#paint12_linear_405_346)"/>
<path d="M86.4643 27.5788L88.2527 25.3444H90.4872L87.9205 28.4708L90.4872 31.5972H88.2527L86.4643 29.3628V31.5972H84.6758V25.3398H86.4643V27.5788Z" fill="url(#paint13_linear_405_346)"/>
<path d="M102.036 25.3447L101.59 27.1332H100.248C99.8789 27.1332 99.5603 27.2652 99.3009 27.5246C99.037 27.7885 98.9096 28.1025 98.9096 28.4711C98.9096 28.8397 99.0415 29.1583 99.3009 29.4177C99.5649 29.6816 99.8789 29.8091 100.248 29.8091H102.036V31.5975H100.248C99.3829 31.5975 98.6456 31.2926 98.0358 30.6828C97.426 30.073 97.1211 29.3358 97.1211 28.4711C97.1211 27.6065 97.426 26.8692 98.0358 26.2594C98.6456 25.6496 99.3829 25.3447 100.248 25.3447H102.036Z" fill="url(#paint14_linear_405_346)"/>
<path d="M104.404 25.3447H106.193V27.5792H108.427V25.3447H110.216V31.6021H108.427V29.3676H106.193V31.6021H104.404V25.3447Z" fill="url(#paint15_linear_405_346)"/>
<path d="M117.465 25.3447L117.019 27.1332H114.785V27.5792H117.465L117.019 29.3676H114.785V29.8136H117.465L117.019 31.6021H112.996V25.3447H117.465Z" fill="url(#paint16_linear_405_346)"/>
<path d="M124.491 25.3447L124.045 27.1332H122.703C122.334 27.1332 122.015 27.2652 121.756 27.5246C121.492 27.7885 121.365 28.1025 121.365 28.4711C121.365 28.8397 121.497 29.1583 121.756 29.4177C122.02 29.6816 122.334 29.8091 122.703 29.8091H124.491V31.5975H122.703C121.838 31.5975 121.101 31.2926 120.491 30.6828C119.881 30.073 119.576 29.3358 119.576 28.4711C119.576 27.6065 119.881 26.8692 120.491 26.2594C121.101 25.6496 121.838 25.3447 122.703 25.3447H124.491Z" fill="url(#paint17_linear_405_346)"/>
<path d="M128.646 27.5788L130.434 25.3444H132.669L130.102 28.4708L132.669 31.5972H130.434L128.646 29.3628V31.5972H126.857V25.3398H128.646V27.5788Z" fill="url(#paint18_linear_405_346)"/>
<path d="M136.835 31.5975C135.971 31.5975 135.233 31.2926 134.624 30.6828C134.014 30.073 133.709 29.3358 133.709 28.4711C133.709 27.6065 134.014 26.8692 134.624 26.2594C135.233 25.6496 135.971 25.3447 136.835 25.3447C137.7 25.3447 138.437 25.6496 139.047 26.2594C139.657 26.8692 139.962 27.6065 139.962 28.4711C139.962 29.3358 139.657 30.073 139.047 30.6828C138.437 31.2926 137.7 31.5975 136.835 31.5975ZM137.782 29.4177C138.046 29.1538 138.173 28.8397 138.173 28.4711C138.173 28.1025 138.041 27.784 137.782 27.5246C137.518 27.2606 137.204 27.1332 136.835 27.1332C136.467 27.1332 136.148 27.2652 135.889 27.5246C135.625 27.7885 135.497 28.1025 135.497 28.4711C135.497 28.8397 135.629 29.1583 135.889 29.4177C136.153 29.6816 136.467 29.8091 136.835 29.8091C137.204 29.8136 137.523 29.6816 137.782 29.4177Z" fill="url(#paint19_linear_405_346)"/>
<path d="M142.24 28.4711V25.3447H144.029V28.4711C144.029 29.3631 144.324 29.8136 144.921 29.8136C145.517 29.8136 145.813 29.3676 145.813 28.4711V25.3447H147.601V28.4711C147.601 30.5554 146.709 31.5975 144.921 31.5975C143.132 31.5975 142.24 30.5554 142.24 28.4711Z" fill="url(#paint20_linear_405_346)"/>
<path d="M153.129 27.1332V31.6021H151.341V27.1332H149.998V25.3447H154.467L154.021 27.1332H153.129Z" fill="url(#paint21_linear_405_346)"/>
<path d="M29.1741 20.9214H29.4404L29.6635 21.215L29.7223 21.2934L30.0551 21.7358H29.7888L29.5696 21.4421L29.5148 21.3677L29.1741 20.9214ZM30.1373 20.5455C30.1373 20.757 30.0991 20.9397 30.0228 21.0937C29.9464 21.2477 29.8417 21.3664 29.7086 21.45C29.5755 21.5335 29.4234 21.5753 29.2524 21.5753C29.0815 21.5753 28.9294 21.5335 28.7963 21.45C28.6632 21.3664 28.5584 21.2477 28.4821 21.0937C28.4057 20.9397 28.3676 20.757 28.3676 20.5455C28.3676 20.3341 28.4057 20.1514 28.4821 19.9974C28.5584 19.8434 28.6632 19.7246 28.7963 19.6411C28.9294 19.5576 29.0815 19.5158 29.2524 19.5158C29.4234 19.5158 29.5755 19.5576 29.7086 19.6411C29.8417 19.7246 29.9464 19.8434 30.0228 19.9974C30.0991 20.1514 30.1373 20.3341 30.1373 20.5455ZM29.9024 20.5455C29.9024 20.3719 29.8733 20.2254 29.8153 20.106C29.7578 19.9866 29.6799 19.8962 29.5813 19.8349C29.4834 19.7735 29.3738 19.7429 29.2524 19.7429C29.1311 19.7429 29.0211 19.7735 28.9226 19.8349C28.8247 19.8962 28.7467 19.9866 28.6886 20.106C28.6312 20.2254 28.6025 20.3719 28.6025 20.5455C28.6025 20.7191 28.6312 20.8656 28.6886 20.985C28.7467 21.1044 28.8247 21.1948 28.9226 21.2562C29.0211 21.3175 29.1311 21.3482 29.2524 21.3482C29.3738 21.3482 29.4834 21.3175 29.5813 21.2562C29.6799 21.1948 29.7578 21.1044 29.8153 20.985C29.8733 20.8656 29.9024 20.7191 29.9024 20.5455ZM29.7614 22.5432H30.0042V23.8705C30.0042 24.0075 29.9719 24.1299 29.9073 24.2376C29.8433 24.3446 29.7529 24.4291 29.6361 24.4911C29.5193 24.5524 29.3823 24.5831 29.225 24.5831C29.0678 24.5831 28.9307 24.5524 28.8139 24.4911C28.6971 24.4291 28.6064 24.3446 28.5418 24.2376C28.4779 24.1299 28.4459 24.0075 28.4459 23.8705V22.5432H28.6886V23.8509C28.6886 23.9488 28.7102 24.0359 28.7532 24.1123C28.7963 24.188 28.8576 24.2477 28.9373 24.2914C29.0175 24.3345 29.1134 24.356 29.225 24.356C29.3366 24.356 29.4325 24.3345 29.5128 24.2914C29.5931 24.2477 29.6544 24.188 29.6968 24.1123C29.7399 24.0359 29.7614 23.9488 29.7614 23.8509V22.5432ZM30.7317 22.5432V24.5479H30.489V22.5432H30.7317ZM30.059 26.1697H29.8162C29.8019 26.0998 29.7768 26.0385 29.7409 25.9856C29.7056 25.9328 29.6626 25.8884 29.6117 25.8525C29.5614 25.816 29.5056 25.7886 29.4443 25.7703C29.3829 25.752 29.319 25.7429 29.2524 25.7429C29.1311 25.7429 29.0211 25.7735 28.9226 25.8349C28.8247 25.8962 28.7467 25.9866 28.6886 26.106C28.6312 26.2254 28.6025 26.3719 28.6025 26.5455C28.6025 26.7191 28.6312 26.8656 28.6886 26.985C28.7467 27.1044 28.8247 27.1948 28.9226 27.2562C29.0211 27.3175 29.1311 27.3482 29.2524 27.3482C29.319 27.3482 29.3829 27.339 29.4443 27.3208C29.5056 27.3025 29.5614 27.2754 29.6117 27.2395C29.6626 27.203 29.7056 27.1583 29.7409 27.1054C29.7768 27.0519 29.8019 26.9906 29.8162 26.9214H30.059C30.0407 27.0238 30.0074 27.1155 29.9592 27.1964C29.9109 27.2774 29.8508 27.3462 29.779 27.403C29.7073 27.4591 29.6267 27.5018 29.5373 27.5312C29.4485 27.5606 29.3536 27.5753 29.2524 27.5753C29.0815 27.5753 28.9294 27.5335 28.7963 27.45C28.6632 27.3664 28.5584 27.2477 28.4821 27.0937C28.4057 26.9397 28.3676 26.757 28.3676 26.5455C28.3676 26.3341 28.4057 26.1514 28.4821 25.9974C28.5584 25.8434 28.6632 25.7246 28.7963 25.6411C28.9294 25.5576 29.0815 25.5158 29.2524 25.5158C29.3536 25.5158 29.4485 25.5305 29.5373 25.5598C29.6267 25.5892 29.7073 25.6323 29.779 25.689C29.8508 25.7452 29.9109 25.8137 29.9592 25.8946C30.0074 25.9749 30.0407 26.0665 30.059 26.1697ZM30.4513 27.5479V25.5432H30.694V26.5377H30.7175L31.618 25.5432H31.9352L31.0934 26.4476L31.9352 27.5479H31.6415L30.9446 26.616L30.694 26.8979V27.5479H30.4513Z" fill="#902968"/>
<path d="M30.059 21.6755H29.8162C29.8019 21.6057 29.7768 21.5443 29.7409 21.4915C29.7056 21.4386 29.6626 21.3943 29.6117 21.3584C29.5614 21.3218 29.5056 21.2944 29.4443 21.2761C29.3829 21.2579 29.319 21.2487 29.2524 21.2487C29.1311 21.2487 29.0211 21.2794 28.9226 21.3407C28.8247 21.4021 28.7467 21.4925 28.6886 21.6119C28.6312 21.7313 28.6025 21.8778 28.6025 22.0514C28.6025 22.225 28.6312 22.3715 28.6886 22.4909C28.7467 22.6103 28.8247 22.7007 28.9226 22.762C29.0211 22.8234 29.1311 22.854 29.2524 22.854C29.319 22.854 29.3829 22.8449 29.4443 22.8266C29.5056 22.8083 29.5614 22.7813 29.6117 22.7454C29.6626 22.7088 29.7056 22.6641 29.7409 22.6113C29.7768 22.5578 29.8019 22.4964 29.8162 22.4273H30.059C30.0407 22.5297 30.0074 22.6214 29.9592 22.7023C29.9109 22.7832 29.8508 22.8521 29.779 22.9088C29.7073 22.965 29.6267 23.0077 29.5373 23.0371C29.4485 23.0664 29.3536 23.0811 29.2524 23.0811C29.0815 23.0811 28.9294 23.0394 28.7963 22.9558C28.6632 22.8723 28.5584 22.7535 28.4821 22.5995C28.4057 22.4455 28.3676 22.2628 28.3676 22.0514C28.3676 21.84 28.4057 21.6572 28.4821 21.5032C28.5584 21.3492 28.6632 21.2305 28.7963 21.1469C28.9294 21.0634 29.0815 21.0216 29.2524 21.0216C29.3536 21.0216 29.4485 21.0363 29.5373 21.0657C29.6267 21.0951 29.7073 21.1381 29.779 21.1949C29.8508 21.251 29.9109 21.3195 29.9592 21.4005C30.0074 21.4807 30.0407 21.5724 30.059 21.6755ZM30.4513 23.0537V21.0491H30.694V21.9418H31.7629V21.0491H32.0057V23.0537H31.7629V22.1571H30.694V23.0537H30.4513ZM32.4916 23.0537V21.0491H33.7015V21.2644H32.7344V21.9418H33.6388V22.1571H32.7344V22.8384H33.7171V23.0537H32.4916ZM30.059 24.6755H29.8162C29.8019 24.6057 29.7768 24.5443 29.7409 24.4915C29.7056 24.4386 29.6626 24.3943 29.6117 24.3584C29.5614 24.3218 29.5056 24.2944 29.4443 24.2761C29.3829 24.2579 29.319 24.2487 29.2524 24.2487C29.1311 24.2487 29.0211 24.2794 28.9226 24.3407C28.8247 24.4021 28.7467 24.4925 28.6886 24.6119C28.6312 24.7313 28.6025 24.8778 28.6025 25.0514C28.6025 25.225 28.6312 25.3715 28.6886 25.4909C28.7467 25.6103 28.8247 25.7007 28.9226 25.762C29.0211 25.8234 29.1311 25.854 29.2524 25.854C29.319 25.854 29.3829 25.8449 29.4443 25.8266C29.5056 25.8083 29.5614 25.7813 29.6117 25.7454C29.6626 25.7088 29.7056 25.6641 29.7409 25.6113C29.7768 25.5578 29.8019 25.4964 29.8162 25.4273H30.059C30.0407 25.5297 30.0074 25.6214 29.9592 25.7023C29.9109 25.7832 29.8508 25.8521 29.779 25.9088C29.7073 25.965 29.6267 26.0077 29.5373 26.0371C29.4485 26.0664 29.3536 26.0811 29.2524 26.0811C29.0815 26.0811 28.9294 26.0394 28.7963 25.9558C28.6632 25.8723 28.5584 25.7535 28.4821 25.5995C28.4057 25.4455 28.3676 25.2628 28.3676 25.0514C28.3676 24.84 28.4057 24.6572 28.4821 24.5032C28.5584 24.3492 28.6632 24.2305 28.7963 24.1469C28.9294 24.0634 29.0815 24.0216 29.2524 24.0216C29.3536 24.0216 29.4485 24.0363 29.5373 24.0657C29.6267 24.0951 29.7073 24.1381 29.779 24.1949C29.8508 24.251 29.9109 24.3195 29.9592 24.4005C30.0074 24.4807 30.0407 24.5724 30.059 24.6755ZM30.4513 26.0537V24.0491H30.694V25.0436H30.7175L31.618 24.0491H31.9352L31.0934 24.9535L31.9352 26.0537H31.6415L30.9446 25.1219L30.694 25.4038V26.0537H30.4513ZM33.8466 25.0514C33.8466 25.2628 33.8084 25.4455 33.7321 25.5995C33.6557 25.7535 33.551 25.8723 33.4179 25.9558C33.2847 26.0394 33.1327 26.0811 32.9617 26.0811C32.7908 26.0811 32.6387 26.0394 32.5056 25.9558C32.3725 25.8723 32.2677 25.7535 32.1914 25.5995C32.115 25.4455 32.0769 25.2628 32.0769 25.0514C32.0769 24.84 32.115 24.6572 32.1914 24.5032C32.2677 24.3492 32.3725 24.2305 32.5056 24.1469C32.6387 24.0634 32.7908 24.0216 32.9617 24.0216C33.1327 24.0216 33.2847 24.0634 33.4179 24.1469C33.551 24.2305 33.6557 24.3492 33.7321 24.5032C33.8084 24.6572 33.8466 24.84 33.8466 25.0514ZM33.6117 25.0514C33.6117 24.8778 33.5826 24.7313 33.5246 24.6119C33.4671 24.4925 33.3892 24.4021 33.2906 24.3407C33.1927 24.2794 33.0831 24.2487 32.9617 24.2487C32.8404 24.2487 32.7304 24.2794 32.6319 24.3407C32.534 24.4021 32.456 24.4925 32.3979 24.6119C32.3405 24.7313 32.3118 24.8778 32.3118 25.0514C32.3118 25.225 32.3405 25.3715 32.3979 25.4909C32.456 25.6103 32.534 25.7007 32.6319 25.762C32.7304 25.8234 32.8404 25.854 32.9617 25.854C33.0831 25.854 33.1927 25.8234 33.2906 25.762C33.3892 25.7007 33.4671 25.6103 33.5246 25.4909C33.5826 25.3715 33.6117 25.225 33.6117 25.0514ZM29.7614 27.0491H30.0042V28.3764C30.0042 28.5134 29.9719 28.6357 29.9073 28.7434C29.8433 28.8504 29.7529 28.9349 29.6361 28.9969C29.5193 29.0583 29.3823 29.0889 29.225 29.0889C29.0678 29.0889 28.9307 29.0583 28.8139 28.9969C28.6971 28.9349 28.6064 28.8504 28.5418 28.7434C28.4779 28.6357 28.4459 28.5134 28.4459 28.3764V27.0491H28.6886V28.3568C28.6886 28.4547 28.7102 28.5418 28.7532 28.6181C28.7963 28.6938 28.8576 28.7535 28.9373 28.7973C29.0175 28.8403 29.1134 28.8619 29.225 28.8619C29.3366 28.8619 29.4325 28.8403 29.5128 28.7973C29.5931 28.7535 29.6544 28.6938 29.6968 28.6181C29.7399 28.5418 29.7614 28.4547 29.7614 28.3568V27.0491ZM30.3793 27.2644V27.0491H31.8828V27.2644H31.2524V29.0537H31.0097V27.2644H30.3793Z" fill="#902968"/>
<path d="M33.9805 16.629C34.2035 16.5926 34.3309 16.4606 34.3673 16.2422C34.4037 16.4606 34.5311 16.5926 34.7541 16.629C34.5311 16.6654 34.3991 16.7928 34.3673 17.0158C34.3309 16.7974 34.2035 16.67 33.9805 16.629Z" fill="url(#paint22_linear_405_346)"/>
<path d="M31.0458 30.6004C24.2605 30.6004 18.7632 25.0984 18.7632 18.3177C18.7632 11.5325 24.2605 6.03509 31.0458 6.03509C37.8311 6.03509 43.3284 11.5325 43.3284 18.3177C43.3284 21.2029 42.3318 23.8606 40.6617 25.954L38.1724 22.6911C38.9551 21.4214 39.4056 19.9196 39.4056 18.3177C39.4056 13.6987 35.6603 9.95334 31.0458 9.95334C28.1151 9.95334 25.5393 11.4597 24.0467 13.7396H25.4711C25.6758 13.7396 25.8488 13.8807 25.8943 14.0764L26.4313 15.7465H32.7023L32.7251 15.7511L35.3463 15.7465C35.5192 15.7693 35.6922 15.833 35.8196 15.9377C35.8469 15.9604 35.9106 16.0014 35.8924 16.0105C34.6682 16.6749 35.9197 16.0423 35.9334 16.056C36.0426 16.1925 36.1018 16.3609 36.079 16.552L35.7377 19.4918L35.5466 21.1074C35.4965 21.5124 35.137 21.8219 34.7274 21.8219H29.3165C29.2482 21.8264 29.1754 21.8219 29.1026 21.8173C28.5838 21.7855 28.1333 21.8128 27.7146 21.5033L28.1788 21.2257C28.1924 21.2166 28.2015 21.1984 28.197 21.1847C28.1924 21.1665 28.1833 21.1529 28.1651 21.1529L27.7465 21.071L28.3199 20.2882C28.329 20.2746 28.329 20.2518 28.3153 20.2382C28.3017 20.2245 28.2789 20.22 28.2653 20.2336L27.2368 20.9527C27.1685 20.8389 27.1003 20.7069 27.032 20.5613L25.1525 14.6088H23.5461C22.9909 15.7238 22.6814 16.9844 22.6814 18.3132C22.6814 22.9277 26.4267 26.673 31.0413 26.673C32.1926 26.673 33.2939 26.4409 34.2951 26.0177L49.6313 37.7224L44.2204 30.6277C47.233 27.4057 49.0807 23.0779 49.0807 18.3177C49.0807 8.35146 41.003 0.27832 31.0413 0.27832C30.5998 0.27832 30.1675 0.291976 29.7352 0.323831C29.6487 0.332933 29.5622 0.337481 29.4803 0.342031C29.3939 0.351133 29.3074 0.355683 29.2209 0.369335C29.0844 0.382988 28.9524 0.396643 28.8205 0.414846C28.7294 0.423948 28.643 0.433046 28.5565 0.446698C28.3881 0.469452 28.2243 0.496756 28.0605 0.524061C28.0013 0.533163 27.9422 0.542268 27.8875 0.55592C27.8739 0.55592 27.8602 0.560468 27.8511 0.560468C27.701 0.587773 27.5553 0.615082 27.4097 0.642387C27.1867 0.687895 26.9683 0.73795 26.7544 0.788009C26.6588 0.810763 26.5678 0.838069 26.4722 0.860824C26.3767 0.888128 26.2811 0.910882 26.181 0.938187C26.0854 0.965491 25.9899 0.9928 25.8943 1.0201L25.8897 1.02465C25.7942 1.05196 25.6986 1.07926 25.603 1.11112C25.5075 1.14298 25.4119 1.17483 25.3163 1.20668C25.2299 1.23854 25.1389 1.26585 25.0524 1.2977C25.0433 1.30226 25.0387 1.30225 25.0342 1.30225C24.9386 1.33411 24.8476 1.37052 24.7566 1.40237C24.6474 1.44333 24.5381 1.48429 24.4335 1.52525C24.3561 1.5571 24.2787 1.5844 24.2014 1.62081C24.1104 1.65721 24.0194 1.69362 23.9329 1.73458C23.8828 1.75733 23.8328 1.77554 23.7873 1.79829C23.7327 1.82559 23.6826 1.84835 23.6234 1.8711C23.6098 1.88021 23.5916 1.88476 23.5734 1.89386C23.4232 1.96212 23.2685 2.03494 23.1183 2.10775C23.0455 2.14415 22.9727 2.18056 22.8999 2.21696C22.8134 2.25792 22.7269 2.30343 22.6405 2.34894C22.5767 2.3808 22.513 2.4172 22.4493 2.45361C22.3811 2.48546 22.3219 2.52187 22.2582 2.55827C22.1126 2.64019 21.9669 2.72665 21.8213 2.81312C21.6529 2.91324 21.4846 3.01791 21.3207 3.12713C21.2388 3.17718 21.1523 3.2318 21.0704 3.28641C20.9749 3.35467 20.8793 3.41383 20.7837 3.48209C20.7155 3.53215 20.6518 3.57766 20.5835 3.62317C20.5016 3.67778 20.4242 3.73693 20.3468 3.7961C20.2695 3.85526 20.1876 3.91442 20.1102 3.97358C19.9873 4.06914 19.8599 4.16471 19.7416 4.26483C19.687 4.30579 19.6278 4.35585 19.5778 4.40135C19.15 4.75632 18.7359 5.12949 18.3399 5.52086C18.2717 5.58457 18.2125 5.64828 18.1488 5.71199L18.1352 5.72564C17.944 5.92588 0.182206 5.53451 0.000173428 5.73929C-0.0635379 5.80756 17.448 6.47198 17.3843 6.54479C17.316 6.62215 17.2477 6.70407 17.1795 6.78598C17.1021 6.88155 17.0248 6.97256 16.9474 7.06813C16.8791 7.15915 16.8063 7.24106 16.7381 7.33663C16.6698 7.42764 16.6015 7.51866 16.5333 7.60513C16.465 7.7007 16.3967 7.79171 16.333 7.88273C16.2648 7.97374 16.2056 8.06931 16.1419 8.16032C16.0827 8.24224 16.0236 8.32871 15.969 8.41517C15.9599 8.42883 15.9553 8.43792 15.9508 8.44702C15.8962 8.52894 15.837 8.6154 15.7869 8.70187C15.7141 8.81564 15.6413 8.93396 15.573 9.04774C15.5275 9.1251 15.482 9.19791 15.4365 9.27528C15.4229 9.29803 15.4092 9.32533 15.3956 9.34808C15.3455 9.43 15.3 9.51647 15.2545 9.59838C15.2499 9.60748 15.2454 9.61658 15.2408 9.62568C15.1908 9.72125 15.1362 9.81682 15.0907 9.91239C15.0861 9.91239 15.0861 9.91693 15.0861 9.91693C15.0361 10.0125 14.986 10.1035 14.9405 10.1945C14.8358 10.4039 14.7311 10.6178 14.6356 10.8362C14.5855 10.9409 14.54 11.0455 14.4945 11.1502H14.49C14.3307 11.2412 2.1163 11.6053 2.09355 11.6599C2.09355 11.7009 14.1805 11.8783 14.1805 11.9193C14.1441 12.0194 14.1077 12.115 14.0713 12.2151C14.0576 12.2515 14.044 12.2925 14.0303 12.3334C13.9894 12.4472 13.9484 12.561 13.912 12.6747C13.8801 12.7703 13.8528 12.8659 13.821 12.966C13.7755 13.1162 13.73 13.2663 13.6845 13.4211C13.6572 13.5166 13.6299 13.6122 13.6025 13.7123C13.5934 13.7442 13.5843 13.7806 13.5752 13.817C13.5525 13.908 13.5297 14.0036 13.507 14.0946C13.5024 14.1173 13.4979 14.1401 13.4933 14.1628C13.466 14.2675 13.4433 14.3676 13.4251 14.4677C13.4205 14.4814 13.416 14.4951 13.416 14.5133C13.3887 14.6361 13.3614 14.759 13.3386 14.8819C13.3113 15.0138 13.2885 15.1458 13.2658 15.2778C13.243 15.4007 13.2248 15.5281 13.2066 15.6555C13.1884 15.7784 13.1702 15.9013 13.1566 16.0241C13.1566 16.0332 13.152 16.0378 13.152 16.0423C13.1384 16.1424 13.1247 16.2426 13.1156 16.3427C13.1111 16.3882 13.1065 16.4337 13.102 16.4747C13.102 16.4792 13.102 16.4792 13.102 16.4792C13.0929 16.5975 13.0792 16.7159 13.0701 16.8342C13.061 16.9661 13.0519 17.0981 13.0428 17.2346C13.0337 17.3621 13.0291 17.494 13.0246 17.626V17.6306C13.02 17.7671 13.0155 17.8991 13.0155 18.0356C13.0109 18.0902 3.69543 18.2859 3.69543 18.3268C3.69543 18.3769 13.0155 18.4315 13.0155 18.4816C13.0155 18.5407 13.02 18.5953 13.02 18.6499C13.0246 18.8502 13.0291 19.055 13.0382 19.2507C13.0428 19.328 13.0473 19.4054 13.0519 19.4827C13.0564 19.5601 13.061 19.6329 13.0656 19.7103C13.0701 19.7649 13.0747 19.8149 13.0792 19.865C13.0883 19.9651 13.0974 20.0698 13.1065 20.1699C13.1156 20.2427 13.1247 20.3155 13.1338 20.3929C13.1429 20.4612 13.1475 20.5203 13.1566 20.584C13.1657 20.6386 13.1702 20.6887 13.1748 20.7433C13.1884 20.8298 13.2021 20.9117 13.2112 20.9982C13.2203 21.0664 13.2339 21.1347 13.243 21.2029C13.2521 21.2712 13.2658 21.3395 13.2794 21.4077C13.3022 21.5443 13.3249 21.6808 13.3523 21.8173C13.3523 21.9675 9.17461 22.0449 9.20646 22.195C9.23377 22.3133 13.5024 22.509 13.5343 22.6274C13.5525 22.7093 13.5752 22.7912 13.5934 22.8776C13.6116 22.9596 13.6344 23.0415 13.6617 23.1234C13.7072 23.2872 13.7573 23.4556 13.8073 23.6149C13.8346 23.7104 13.8665 23.8015 13.8983 23.897C13.9029 23.9061 13.9029 23.9152 13.9075 23.9289C13.9393 24.0108 13.9894 24.1655 14.003 24.2065C14.0076 24.211 14.0076 24.211 14.0076 24.2156C-9.31989 25.7492 14.2715 24.9437 14.4217 25.2987C14.4308 25.3169 14.4353 25.3305 14.4399 25.3487C14.5264 25.549 14.6128 25.7492 14.7084 25.9494C14.7175 25.9722 14.7266 25.9904 14.7403 26.0132C14.7767 26.0905 14.8176 26.1679 14.854 26.2452C14.8904 26.3226 14.9268 26.4 14.9678 26.4773C15.0042 26.5547 15.0452 26.6275 15.0861 26.7049C15.0907 26.714 15.0952 26.7231 15.0998 26.7322C15.1771 26.8778 15.2545 27.0234 15.3319 27.1645C15.4866 27.4649 9.9892 27.7425 10.1758 28.0292C10.2531 28.1475 15.9371 28.2795 16.0918 28.3932C16.0964 28.3978 16.0964 28.3978 16.0964 28.3978C16.1601 28.4888 16.2193 28.5798 16.283 28.6708C16.3467 28.7618 16.4104 28.8483 16.4741 28.9393C16.4787 28.9439 16.4832 28.9484 16.4832 28.953C16.6061 29.1259 16.7381 29.2943 16.87 29.4627C16.961 29.5764 17.0566 29.6948 17.1476 29.8085C17.2614 29.9451 17.3797 30.0816 17.498 30.2181C17.5709 30.3 17.6437 30.3819 17.7165 30.4639V30.4684C17.7165 30.564 4.77852 31.0964 4.77852 31.192C4.89685 31.3194 18.1807 31.0008 18.3445 31.1237C18.349 31.1237 18.349 31.1237 18.349 31.1237C18.4492 31.2238 18.5538 31.324 18.6585 31.4241C18.7632 31.5242 18.8678 31.6198 18.9725 31.7153C19.0772 31.8109 19.1864 31.9065 19.2956 32.002C19.3957 32.0839 19.4958 32.1704 19.596 32.2523C19.6051 32.2614 19.6142 32.2705 19.6278 32.2796C19.7416 32.3706 19.8508 32.4617 19.9646 32.5481C20.0784 32.6391 20.1921 32.7256 20.3059 32.8121C20.4242 32.8985 20.538 32.9804 20.6563 33.0669C20.7655 33.1443 20.8702 33.2171 20.984 33.2945C20.9931 33.3036 21.0022 33.3081 21.0113 33.3127C21.2479 33.4719 21.4937 33.6312 21.7439 33.7814C21.8668 33.8542 21.9942 33.927 22.1171 33.9998C22.2354 34.0681 22.3538 34.1364 22.4721 34.2001C22.4812 34.2046 22.4857 34.2092 22.4994 34.2137C22.6268 34.282 22.7542 34.3502 22.8862 34.414C23.141 34.5459 23.405 34.6733 23.6689 34.7917C23.8055 34.8508 23.9374 34.91 24.0694 34.9646C24.2059 35.0192 24.3425 35.0784 24.4744 35.1284C24.611 35.183 24.7475 35.2331 24.884 35.2832C25.0251 35.3332 25.1616 35.3833 25.2981 35.4288C25.4347 35.4743 25.5666 35.5153 25.7032 35.5562C25.7942 35.5835 25.8806 35.6108 25.9717 35.6381C26.0945 35.6745 26.2174 35.7109 26.3403 35.7428C26.7043 35.8384 27.0684 35.9248 27.4416 36.0022C27.5644 36.0295 27.6919 36.0522 27.8193 36.075C28.8751 36.2661 29.9582 36.3663 31.0686 36.3663C33.485 36.3663 35.7923 35.8884 37.8993 35.0238L32.0515 30.564C31.7057 30.5822 31.378 30.6004 31.0458 30.6004ZM26.7771 21.972L27.387 21.3076C27.3961 21.2985 27.4006 21.2803 27.3961 21.2667C27.3915 21.253 27.3824 21.2439 27.3642 21.2394L27.0593 21.1802L27.2868 21.0209L28.1196 20.4384L27.6555 21.071C27.6463 21.0846 27.6463 21.0983 27.6509 21.1119C27.6554 21.1256 27.6691 21.1347 27.6828 21.1392L28.0605 21.2166L27.66 21.4532L26.7771 21.972ZM28.8478 23.5876C28.4928 23.5876 28.2015 23.2963 28.2015 22.9414C28.2015 22.5864 28.4928 22.2951 28.8478 22.2951C29.2073 22.2951 29.494 22.5864 29.494 22.9414C29.494 23.2963 29.2073 23.5876 28.8478 23.5876ZM32.8525 23.5375C32.493 23.5375 32.2063 23.2463 32.2063 22.8913C32.2063 22.5318 32.493 22.2451 32.8525 22.2451C33.2074 22.2451 33.4987 22.5318 33.4987 22.8913C33.4987 23.2508 33.2074 23.5375 32.8525 23.5375ZM32.9162 15.296C32.8889 15.1413 32.7979 15.0503 32.6386 15.0229C32.7979 14.9956 32.8889 14.9046 32.9162 14.7499C32.9435 14.9092 33.0345 15.0002 33.1892 15.0229C33.03 15.0457 32.9389 15.1367 32.9162 15.296ZM33.6216 13.7487C33.5806 13.5257 33.4532 13.3983 33.2302 13.3619C33.4532 13.3255 33.5806 13.1935 33.6216 12.9751C33.658 13.1981 33.7854 13.3255 34.0084 13.3619C33.7854 13.3938 33.6534 13.5212 33.6216 13.7487ZM34.0539 14.4131C34.5545 14.3267 34.8503 14.0309 34.9367 13.5303C35.0232 14.0309 35.3145 14.3312 35.8196 14.4131C35.3099 14.4951 35.0141 14.7863 34.9367 15.296C34.8457 14.7954 34.5499 14.5042 34.0539 14.4131ZM36.261 17.2437L36.2428 16.3973C36.2383 16.2653 36.2019 16.1379 36.1382 16.0287C36.1245 16.0014 36.0927 15.9604 36.0927 15.9604C37.6672 15.1868 36.0653 15.9286 36.0517 15.9104C35.9789 15.8239 35.8833 15.7556 35.7741 15.7101L35.0824 15.4143L37.7628 15.0412L36.261 17.2437Z" fill="url(#paint23_linear_405_346)"/>
<path d="M28.3194 20.2384C28.3058 20.2247 28.283 20.2202 28.2648 20.2338L27.2363 20.9529C27.25 20.9756 27.2636 20.9984 27.2773 21.0211L28.1101 20.4386L27.6459 21.0757C27.6368 21.0848 27.6368 21.103 27.6414 21.1167C27.6459 21.1303 27.6596 21.1394 27.6687 21.1394L28.0464 21.2168L27.6459 21.4534C27.6687 21.4716 27.6914 21.4898 27.7142 21.5081L28.1783 21.2305C28.192 21.2214 28.2011 21.2031 28.1965 21.1895C28.192 21.1713 28.1783 21.1622 28.1647 21.1576L27.746 21.0712L28.3149 20.2884C28.3376 20.2748 28.3331 20.252 28.3194 20.2384Z" fill="#902968"/>
<path d="M28.3195 20.2384C28.3059 20.2247 28.2831 20.2202 28.2649 20.2338L27.2364 20.9529L26.9315 21.1667C26.9179 21.1758 26.9133 21.1941 26.9133 21.2077C26.9179 21.2259 26.9315 21.235 26.9452 21.2396L27.2729 21.3078L26.5265 22.1179C26.5129 22.1315 26.5129 22.1543 26.522 22.1725C26.5265 22.1816 26.5356 22.1861 26.5447 22.1861C26.5538 22.1907 26.5675 22.1861 26.572 22.1816L27.7097 21.5081L28.1739 21.2305C28.1876 21.2214 28.1967 21.2031 28.1921 21.1895C28.1876 21.1713 28.1739 21.1622 28.1603 21.1576L27.7416 21.0712L28.3104 20.2884C28.3377 20.2748 28.3332 20.252 28.3195 20.2384ZM27.6506 21.0757C27.6415 21.0848 27.6415 21.103 27.646 21.1167C27.6506 21.1303 27.6642 21.1394 27.6733 21.1394L28.051 21.2168L27.6506 21.4534L26.7768 21.9722L27.3866 21.3078C27.3957 21.2987 27.4003 21.2805 27.3957 21.2669C27.3912 21.2532 27.3775 21.2441 27.3639 21.2396L27.059 21.1758L27.282 21.0211L28.1148 20.4386L27.6506 21.0757Z" fill="#902968"/>
<defs>
<linearGradient id="paint0_linear_405_346" x1="57.0095" y1="15.3272" x2="69.0282" y2="15.3272" gradientUnits="userSpaceOnUse">
<stop stop-color="#D1295F"/>
<stop offset="1" stop-color="#4C2971"/>
</linearGradient>
<linearGradient id="paint1_linear_405_346" x1="70.9999" y1="15.3272" x2="83.0185" y2="15.3272" gradientUnits="userSpaceOnUse">
<stop stop-color="#D1295F"/>
<stop offset="1" stop-color="#4C2971"/>
</linearGradient>
<linearGradient id="paint2_linear_405_346" x1="82.4479" y1="15.3272" x2="95.391" y2="15.3272" gradientUnits="userSpaceOnUse">
<stop stop-color="#D1295F"/>
<stop offset="1" stop-color="#4C2971"/>
</linearGradient>
<linearGradient id="paint3_linear_405_346" x1="96.6895" y1="15.3272" x2="105.935" y2="15.3272" gradientUnits="userSpaceOnUse">
<stop stop-color="#D1295F"/>
<stop offset="1" stop-color="#4C2971"/>
</linearGradient>
<linearGradient id="paint4_linear_405_346" x1="107.825" y1="15.3272" x2="111.523" y2="15.3272" gradientUnits="userSpaceOnUse">
<stop stop-color="#D1295F"/>
<stop offset="1" stop-color="#4C2971"/>
</linearGradient>
<linearGradient id="paint5_linear_405_346" x1="114.548" y1="15.3272" x2="125.642" y2="15.3272" gradientUnits="userSpaceOnUse">
<stop stop-color="#D1295F"/>
<stop offset="1" stop-color="#4C2971"/>
</linearGradient>
<linearGradient id="paint6_linear_405_346" x1="128.671" y1="15.3272" x2="132.369" y2="15.3272" gradientUnits="userSpaceOnUse">
<stop stop-color="#D1295F"/>
<stop offset="1" stop-color="#4C2971"/>
</linearGradient>
<linearGradient id="paint7_linear_405_346" x1="134.61" y1="15.3269" x2="143.855" y2="15.3269" gradientUnits="userSpaceOnUse">
<stop stop-color="#D1295F"/>
<stop offset="1" stop-color="#4C2971"/>
</linearGradient>
<linearGradient id="paint8_linear_405_346" x1="145.059" y1="15.3272" x2="158.002" y2="15.3272" gradientUnits="userSpaceOnUse">
<stop stop-color="#D1295F"/>
<stop offset="1" stop-color="#4C2971"/>
</linearGradient>
<linearGradient id="paint9_linear_405_346" x1="56.7677" y1="28.471" x2="63.4704" y2="28.471" gradientUnits="userSpaceOnUse">
<stop stop-color="#D1295F"/>
<stop offset="1" stop-color="#4C2971"/>
</linearGradient>
<linearGradient id="paint10_linear_405_346" x1="65.3803" y1="28.4717" x2="70.7424" y2="28.4717" gradientUnits="userSpaceOnUse">
<stop stop-color="#D1295F"/>
<stop offset="1" stop-color="#4C2971"/>
</linearGradient>
<linearGradient id="paint11_linear_405_346" x1="73.3088" y1="28.4717" x2="75.0961" y2="28.4717" gradientUnits="userSpaceOnUse">
<stop stop-color="#D1295F"/>
<stop offset="1" stop-color="#4C2971"/>
</linearGradient>
<linearGradient id="paint12_linear_405_346" x1="77.3935" y1="28.4717" x2="82.3088" y2="28.4717" gradientUnits="userSpaceOnUse">
<stop stop-color="#D1295F"/>
<stop offset="1" stop-color="#4C2971"/>
</linearGradient>
<linearGradient id="paint13_linear_405_346" x1="84.6783" y1="28.4713" x2="90.4873" y2="28.4713" gradientUnits="userSpaceOnUse">
<stop stop-color="#D1295F"/>
<stop offset="1" stop-color="#4C2971"/>
</linearGradient>
<linearGradient id="paint14_linear_405_346" x1="97.1197" y1="28.4717" x2="102.035" y2="28.4717" gradientUnits="userSpaceOnUse">
<stop stop-color="#D1295F"/>
<stop offset="1" stop-color="#4C2971"/>
</linearGradient>
<linearGradient id="paint15_linear_405_346" x1="104.406" y1="28.4717" x2="110.215" y2="28.4717" gradientUnits="userSpaceOnUse">
<stop stop-color="#D1295F"/>
<stop offset="1" stop-color="#4C2971"/>
</linearGradient>
<linearGradient id="paint16_linear_405_346" x1="112.996" y1="28.4717" x2="117.464" y2="28.4717" gradientUnits="userSpaceOnUse">
<stop stop-color="#D1295F"/>
<stop offset="1" stop-color="#4C2971"/>
</linearGradient>
<linearGradient id="paint17_linear_405_346" x1="119.574" y1="28.4717" x2="124.489" y2="28.4717" gradientUnits="userSpaceOnUse">
<stop stop-color="#D1295F"/>
<stop offset="1" stop-color="#4C2971"/>
</linearGradient>
<linearGradient id="paint18_linear_405_346" x1="126.859" y1="28.4713" x2="132.668" y2="28.4713" gradientUnits="userSpaceOnUse">
<stop stop-color="#D1295F"/>
<stop offset="1" stop-color="#4C2971"/>
</linearGradient>
<linearGradient id="paint19_linear_405_346" x1="133.709" y1="28.4717" x2="139.964" y2="28.4717" gradientUnits="userSpaceOnUse">
<stop stop-color="#D1295F"/>
<stop offset="1" stop-color="#4C2971"/>
</linearGradient>
<linearGradient id="paint20_linear_405_346" x1="142.239" y1="28.4717" x2="147.601" y2="28.4717" gradientUnits="userSpaceOnUse">
<stop stop-color="#D1295F"/>
<stop offset="1" stop-color="#4C2971"/>
</linearGradient>
<linearGradient id="paint21_linear_405_346" x1="150" y1="28.4717" x2="154.469" y2="28.4717" gradientUnits="userSpaceOnUse">
<stop stop-color="#D1295F"/>
<stop offset="1" stop-color="#4C2971"/>
</linearGradient>
<linearGradient id="paint22_linear_405_346" x1="33.982" y1="16.6304" x2="34.7595" y2="16.6304" gradientUnits="userSpaceOnUse">
<stop stop-color="#D1295F"/>
<stop offset="1" stop-color="#4C2971"/>
</linearGradient>
<linearGradient id="paint23_linear_405_346" x1="-0.00506" y1="19.0004" x2="49.637" y2="19.0004" gradientUnits="userSpaceOnUse">
<stop stop-color="#D1295F"/>
<stop offset="1" stop-color="#4C2971"/>
</linearGradient>
</defs>
</svg>
