<svg width="348" height="84" viewBox="0 0 348 84" fill="none" xmlns="http://www.w3.org/2000/svg">
<path d="M135.84 37.9897C129.07 37.9897 125.68 34.9197 125.68 28.7697C125.68 22.7297 129.07 19.7097 135.84 19.7097H150.06L148.03 27.8397H135.84C134.49 27.8397 133.81 28.1497 133.81 28.7697C133.81 29.4997 134.49 29.8697 135.84 29.8697H141.93C148.7 29.8697 152.09 32.8897 152.09 38.9297C152.09 45.0797 148.7 48.1497 141.93 48.1497H127.71L129.74 40.0197H141.93C143.28 40.0197 143.96 39.6497 143.96 38.9197C143.96 38.2997 143.28 37.9897 141.93 37.9897H135.84Z" fill="url(#paint0_linear_349_581)"/>
<path d="M164.548 29.8697L172.678 19.7097H182.838L171.178 33.9297L182.838 48.1497H172.678L164.548 37.9897V48.1497H156.418V19.7097H164.548V29.8697Z" fill="url(#paint1_linear_349_581)"/>
<path d="M191.738 35.9597L181.578 19.7097H190.248L195.798 27.8397L201.348 19.7097H210.018L199.858 35.9597V48.1497H191.728V35.9597H191.738Z" fill="url(#paint2_linear_349_581)"/>
<path d="M233.191 19.7097L231.161 27.8397H221.001V29.8697H233.191L231.161 37.9997H221.001V48.1597H212.871V19.7197H233.191V19.7097Z" fill="url(#paint3_linear_349_581)"/>
<path d="M245.47 19.7097V48.1497H237.34V19.7097H245.47Z" fill="url(#paint4_linear_349_581)"/>
<path d="M268.369 48.1497L260.239 34.6597V48.1497H252.109V19.7097H260.239L268.369 33.9297V19.7097H276.499V48.1497H268.369Z" fill="url(#paint5_linear_349_581)"/>
<path d="M291.271 19.7097V48.1497H283.141V19.7097H291.271Z" fill="url(#paint6_linear_349_581)"/>
<path d="M310.419 27.8297V48.1497H302.289V27.8297H296.199V19.6997H316.519L314.489 27.8297H310.419Z" fill="url(#paint7_linear_349_581)"/>
<path d="M329.32 35.9597L319.16 19.7097H327.83L333.38 27.8397L338.93 19.7097H347.6L337.44 35.9597V48.1497H329.31V35.9597H329.32Z" fill="url(#paint8_linear_349_581)"/>
<path d="M138.452 65.31L139.882 66.74L136.932 69.69L135.812 68.57C134.702 69.32 133.442 69.69 132.022 69.69C130.122 69.69 128.502 69.0199 127.162 67.6799C125.822 66.3399 125.152 64.72 125.152 62.82C125.152 60.92 125.822 59.3 127.162 57.96C128.502 56.62 130.122 55.95 132.022 55.95C133.922 55.95 135.542 56.62 136.882 57.96C138.222 59.3 138.892 60.92 138.892 62.82C138.902 63.71 138.752 64.54 138.452 65.31ZM134.112 64.89C134.692 64.31 134.972 63.62 134.972 62.81C134.972 62 134.682 61.3 134.112 60.7299C133.532 60.15 132.842 59.8699 132.032 59.8699C131.222 59.8699 130.522 60.1599 129.952 60.7299C129.372 61.3099 129.092 62 129.092 62.81C129.092 63.62 129.382 64.32 129.952 64.89C130.532 65.47 131.222 65.75 132.032 65.75C132.842 65.75 133.532 65.47 134.112 64.89Z" fill="url(#paint9_linear_349_581)"/>
<path d="M144.082 62.8099V55.9399H148.012V62.8099C148.012 64.7699 148.662 65.7599 149.972 65.7599C151.282 65.7599 151.932 64.7799 151.932 62.8099V55.9399H155.862V62.8099C155.862 67.3899 153.902 69.6799 149.972 69.6799C146.042 69.6799 144.082 67.3899 144.082 62.8099Z" fill="url(#paint10_linear_349_581)"/>
<path d="M165.434 55.9399V69.6899H161.504V55.9399H165.434Z" fill="url(#paint11_linear_349_581)"/>
<path d="M181.28 55.9399L180.3 59.8699H177.35C176.54 59.8699 175.84 60.1599 175.27 60.7299C174.69 61.3099 174.41 61.9999 174.41 62.8099C174.41 63.6199 174.7 64.3199 175.27 64.8899C175.85 65.4699 176.54 65.7499 177.35 65.7499H181.28V69.6799H177.35C175.45 69.6799 173.83 69.0099 172.49 67.6699C171.15 66.3299 170.48 64.7099 170.48 62.8099C170.48 60.9099 171.15 59.2899 172.49 57.9499C173.83 56.6099 175.45 55.9399 177.35 55.9399H181.28Z" fill="url(#paint12_linear_349_581)"/>
<path d="M190.41 60.8499L194.34 55.9399H199.25L193.61 62.8099L199.25 69.6799H194.34L190.41 64.7699V69.6799H186.48V55.9299H190.41V60.8499Z" fill="url(#paint13_linear_349_581)"/>
<path d="M224.632 55.9399L223.652 59.8699H220.702C219.892 59.8699 219.192 60.1599 218.622 60.7299C218.042 61.3099 217.762 61.9999 217.762 62.8099C217.762 63.6199 218.052 64.3199 218.622 64.8899C219.202 65.4699 219.892 65.7499 220.702 65.7499H224.632V69.6799H220.702C218.802 69.6799 217.182 69.0099 215.842 67.6699C214.502 66.3299 213.832 64.7099 213.832 62.8099C213.832 60.9099 214.502 59.2899 215.842 57.9499C217.182 56.6099 218.802 55.9399 220.702 55.9399H224.632Z" fill="url(#paint14_linear_349_581)"/>
<path d="M229.832 55.9399H233.762V60.8499H238.672V55.9399H242.602V69.6899H238.672V64.7799H233.762V69.6899H229.832V55.9399Z" fill="url(#paint15_linear_349_581)"/>
<path d="M258.531 55.9399L257.551 59.8699H252.641V60.8499H258.531L257.551 64.7799H252.641V65.7599H258.531L257.551 69.6899H248.711V55.9399H258.531Z" fill="url(#paint16_linear_349_581)"/>
<path d="M273.972 55.9399L272.992 59.8699H270.042C269.232 59.8699 268.532 60.1599 267.962 60.7299C267.382 61.3099 267.102 61.9999 267.102 62.8099C267.102 63.6199 267.392 64.3199 267.962 64.8899C268.542 65.4699 269.232 65.7499 270.042 65.7499H273.972V69.6799H270.042C268.142 69.6799 266.522 69.0099 265.182 67.6699C263.842 66.3299 263.172 64.7099 263.172 62.8099C263.172 60.9099 263.842 59.2899 265.182 57.9499C266.522 56.6099 268.142 55.9399 270.042 55.9399H273.972Z" fill="url(#paint17_linear_349_581)"/>
<path d="M283.102 60.8499L287.032 55.9399H291.942L286.302 62.8099L291.942 69.6799H287.032L283.102 64.7699V69.6799H279.172V55.9299H283.102V60.8499Z" fill="url(#paint18_linear_349_581)"/>
<path d="M301.1 69.6799C299.2 69.6799 297.58 69.0099 296.24 67.6699C294.9 66.3299 294.23 64.7099 294.23 62.8099C294.23 60.9099 294.9 59.2899 296.24 57.9499C297.58 56.6099 299.2 55.9399 301.1 55.9399C303 55.9399 304.62 56.6099 305.96 57.9499C307.3 59.2899 307.97 60.9099 307.97 62.8099C307.97 64.7099 307.3 66.3299 305.96 67.6699C304.62 69.0099 303 69.6799 301.1 69.6799ZM303.18 64.8899C303.76 64.3099 304.04 63.6199 304.04 62.8099C304.04 61.9999 303.75 61.2999 303.18 60.7299C302.6 60.1499 301.91 59.8699 301.1 59.8699C300.29 59.8699 299.59 60.1599 299.02 60.7299C298.44 61.3099 298.16 61.9999 298.16 62.8099C298.16 63.6199 298.45 64.3199 299.02 64.8899C299.6 65.4699 300.29 65.7499 301.1 65.7499C301.91 65.7599 302.61 65.4699 303.18 64.8899Z" fill="url(#paint19_linear_349_581)"/>
<path d="M312.973 62.8099V55.9399H316.903V62.8099C316.903 64.7699 317.553 65.7599 318.863 65.7599C320.173 65.7599 320.823 64.7799 320.823 62.8099V55.9399H324.753V62.8099C324.753 67.3899 322.793 69.6799 318.863 69.6799C314.933 69.6799 312.973 67.3899 312.973 62.8099Z" fill="url(#paint20_linear_349_581)"/>
<path d="M336.903 59.8699V69.6899H332.973V59.8699H330.023V55.9399H339.843L338.863 59.8699H336.903Z" fill="url(#paint21_linear_349_581)"/>
<path d="M63.3577 43.3794H63.624L63.8471 43.6731L63.9059 43.7514L64.2387 44.1938H63.9724L63.7532 43.9001L63.6984 43.8258L63.3577 43.3794ZM64.3209 43.0035C64.3209 43.215 64.2827 43.3977 64.2064 43.5517C64.13 43.7057 64.0253 43.8244 63.8922 43.908C63.759 43.9915 63.607 44.0333 63.436 44.0333C63.2651 44.0333 63.113 43.9915 62.9799 43.908C62.8468 43.8244 62.742 43.7057 62.6657 43.5517C62.5893 43.3977 62.5512 43.215 62.5512 43.0035C62.5512 42.7921 62.5893 42.6094 62.6657 42.4554C62.742 42.3014 62.8468 42.1826 62.9799 42.0991C63.113 42.0156 63.2651 41.9738 63.436 41.9738C63.607 41.9738 63.759 42.0156 63.8922 42.0991C64.0253 42.1826 64.13 42.3014 64.2064 42.4554C64.2827 42.6094 64.3209 42.7921 64.3209 43.0035ZM64.086 43.0035C64.086 42.83 64.0569 42.6835 63.9989 42.564C63.9414 42.4446 63.8635 42.3542 63.7649 42.2929C63.667 42.2316 63.5574 42.2009 63.436 42.2009C63.3147 42.2009 63.2047 42.2316 63.1062 42.2929C63.0083 42.3542 62.9303 42.4446 62.8722 42.564C62.8148 42.6835 62.7861 42.83 62.7861 43.0035C62.7861 43.1771 62.8148 43.3236 62.8722 43.443C62.9303 43.5624 63.0083 43.6528 63.1062 43.7142C63.2047 43.7755 63.3147 43.8062 63.436 43.8062C63.5574 43.8062 63.667 43.7755 63.7649 43.7142C63.8635 43.6528 63.9414 43.5624 63.9989 43.443C64.0569 43.3236 64.086 43.1771 64.086 43.0035ZM66.0446 42.0012H66.2874V43.3285C66.2874 43.4655 66.2551 43.5879 66.1905 43.6956C66.1265 43.8026 66.0361 43.8871 65.9193 43.9491C65.8025 44.0104 65.6655 44.0411 65.5082 44.0411C65.351 44.0411 65.2139 44.0104 65.0971 43.9491C64.9803 43.8871 64.8896 43.8026 64.825 43.6956C64.761 43.5879 64.7291 43.4655 64.7291 43.3285V42.0012H64.9718V43.3089C64.9718 43.4068 64.9934 43.4939 65.0364 43.5703C65.0795 43.646 65.1408 43.7057 65.2204 43.7494C65.3007 43.7925 65.3966 43.814 65.5082 43.814C65.6198 43.814 65.7157 43.7925 65.796 43.7494C65.8763 43.7057 65.9376 43.646 65.98 43.5703C66.0231 43.4939 66.0446 43.4068 66.0446 43.3089V42.0012ZM67.0149 42.0012V44.0059H66.7721V42.0012H67.0149ZM69.1147 42.6277H68.872C68.8576 42.5578 68.8325 42.4965 68.7966 42.4436C68.7614 42.3908 68.7183 42.3464 68.6674 42.3105C68.6172 42.274 68.5614 42.2466 68.5 42.2283C68.4387 42.21 68.3747 42.2009 68.3082 42.2009C68.1868 42.2009 68.0769 42.2316 67.9783 42.2929C67.8804 42.3542 67.8025 42.4446 67.7444 42.564C67.6869 42.6835 67.6582 42.83 67.6582 43.0035C67.6582 43.1771 67.6869 43.3236 67.7444 43.443C67.8025 43.5624 67.8804 43.6528 67.9783 43.7142C68.0769 43.7755 68.1868 43.8062 68.3082 43.8062C68.3747 43.8062 68.4387 43.797 68.5 43.7788C68.5614 43.7605 68.6172 43.7334 68.6674 43.6975C68.7183 43.661 68.7614 43.6163 68.7966 43.5634C68.8325 43.5099 68.8576 43.4486 68.872 43.3794H69.1147C69.0965 43.4819 69.0632 43.5735 69.0149 43.6545C68.9666 43.7354 68.9066 43.8042 68.8348 43.861C68.763 43.9171 68.6824 43.9599 68.593 43.9892C68.5043 44.0186 68.4093 44.0333 68.3082 44.0333C68.1372 44.0333 67.9852 43.9915 67.852 43.908C67.7189 43.8244 67.6142 43.7057 67.5378 43.5517C67.4615 43.3977 67.4233 43.215 67.4233 43.0035C67.4233 42.7921 67.4615 42.6094 67.5378 42.4554C67.6142 42.3014 67.7189 42.1826 67.852 42.0991C67.9852 42.0156 68.1372 41.9738 68.3082 41.9738C68.4093 41.9738 68.5043 41.9885 68.593 42.0178C68.6824 42.0472 68.763 42.0903 68.8348 42.1471C68.9066 42.2032 68.9666 42.2717 69.0149 42.3526C69.0632 42.4329 69.0965 42.5246 69.1147 42.6277ZM69.507 44.0059V42.0012H69.7498V42.9957H69.7733L70.6738 42.0012H70.9909L70.1491 42.9056L70.9909 44.0059H70.6973L70.0003 43.074L69.7498 43.3559V44.0059H69.507Z" fill="#902968"/>
<path d="M64.2426 45.9377H63.9998C63.9855 45.8679 63.9604 45.8066 63.9245 45.7537C63.8892 45.7008 63.8462 45.6565 63.7953 45.6206C63.745 45.584 63.6892 45.5566 63.6279 45.5384C63.5665 45.5201 63.5026 45.5109 63.436 45.5109C63.3147 45.5109 63.2047 45.5416 63.1062 45.603C63.0083 45.6643 62.9303 45.7547 62.8722 45.8741C62.8148 45.9935 62.7861 46.14 62.7861 46.3136C62.7861 46.4872 62.8148 46.6337 62.8722 46.7531C62.9303 46.8725 63.0083 46.9629 63.1062 47.0242C63.2047 47.0856 63.3147 47.1162 63.436 47.1162C63.5026 47.1162 63.5665 47.1071 63.6279 47.0888C63.6892 47.0706 63.745 47.0435 63.7953 47.0076C63.8462 46.971 63.8892 46.9263 63.9245 46.8735C63.9604 46.82 63.9855 46.7586 63.9998 46.6895H64.2426C64.2243 46.7919 64.191 46.8836 64.1427 46.9645C64.0945 47.0454 64.0344 47.1143 63.9626 47.1711C63.8909 47.2272 63.8103 47.2699 63.7209 47.2993C63.6321 47.3286 63.5372 47.3433 63.436 47.3433C63.2651 47.3433 63.113 47.3016 62.9799 47.218C62.8468 47.1345 62.742 47.0157 62.6657 46.8617C62.5893 46.7077 62.5512 46.525 62.5512 46.3136C62.5512 46.1022 62.5893 45.9194 62.6657 45.7654C62.742 45.6114 62.8468 45.4927 62.9799 45.4091C63.113 45.3256 63.2651 45.2839 63.436 45.2839C63.5372 45.2839 63.6321 45.2985 63.7209 45.3279C63.8103 45.3573 63.8909 45.4003 63.9626 45.4571C64.0344 45.5132 64.0945 45.5817 64.1427 45.6627C64.191 45.7429 64.2243 45.8346 64.2426 45.9377ZM64.6349 47.3159V45.3113H64.8776V46.204H65.9465V45.3113H66.1892V47.3159H65.9465V46.4193H64.8776V47.3159H64.6349ZM66.6752 47.3159V45.3113H67.8851V45.5266H66.918V46.204H67.8224V46.4193H66.918V47.1006H67.9007V47.3159H66.6752ZM69.9357 45.9377H69.693C69.6786 45.8679 69.6535 45.8066 69.6176 45.7537C69.5824 45.7008 69.5393 45.6565 69.4884 45.6206C69.4382 45.584 69.3824 45.5566 69.321 45.5384C69.2597 45.5201 69.1957 45.5109 69.1292 45.5109C69.0078 45.5109 68.8978 45.5416 68.7993 45.603C68.7014 45.6643 68.6234 45.7547 68.5654 45.8741C68.5079 45.9935 68.4792 46.14 68.4792 46.3136C68.4792 46.4872 68.5079 46.6337 68.5654 46.7531C68.6234 46.8725 68.7014 46.9629 68.7993 47.0242C68.8978 47.0856 69.0078 47.1162 69.1292 47.1162C69.1957 47.1162 69.2597 47.1071 69.321 47.0888C69.3824 47.0706 69.4382 47.0435 69.4884 47.0076C69.5393 46.971 69.5824 46.9263 69.6176 46.8735C69.6535 46.82 69.6786 46.7586 69.693 46.6895H69.9357C69.9175 46.7919 69.8842 46.8836 69.8359 46.9645C69.7876 47.0454 69.7276 47.1143 69.6558 47.1711C69.584 47.2272 69.5034 47.2699 69.414 47.2993C69.3253 47.3286 69.2303 47.3433 69.1292 47.3433C68.9582 47.3433 68.8062 47.3016 68.673 47.218C68.5399 47.1345 68.4352 47.0157 68.3588 46.8617C68.2825 46.7077 68.2443 46.525 68.2443 46.3136C68.2443 46.1022 68.2825 45.9194 68.3588 45.7654C68.4352 45.6114 68.5399 45.4927 68.673 45.4091C68.8062 45.3256 68.9582 45.2839 69.1292 45.2839C69.2303 45.2839 69.3253 45.2985 69.414 45.3279C69.5034 45.3573 69.584 45.4003 69.6558 45.4571C69.7276 45.5132 69.7876 45.5817 69.8359 45.6627C69.8842 45.7429 69.9175 45.8346 69.9357 45.9377ZM70.328 47.3159V45.3113H70.5708V46.3058H70.5943L71.4948 45.3113H71.8119L70.9701 46.2157L71.8119 47.3159H71.5183L70.8213 46.3841L70.5708 46.666V47.3159H70.328ZM73.7233 46.3136C73.7233 46.525 73.6852 46.7077 73.6088 46.8617C73.5325 47.0157 73.4277 47.1345 73.2946 47.218C73.1615 47.3016 73.0094 47.3433 72.8385 47.3433C72.6675 47.3433 72.5155 47.3016 72.3823 47.218C72.2492 47.1345 72.1445 47.0157 72.0681 46.8617C71.9918 46.7077 71.9536 46.525 71.9536 46.3136C71.9536 46.1022 71.9918 45.9194 72.0681 45.7654C72.1445 45.6114 72.2492 45.4927 72.3823 45.4091C72.5155 45.3256 72.6675 45.2839 72.8385 45.2839C73.0094 45.2839 73.1615 45.3256 73.2946 45.4091C73.4277 45.4927 73.5325 45.6114 73.6088 45.7654C73.6852 45.9194 73.7233 46.1022 73.7233 46.3136ZM73.4884 46.3136C73.4884 46.14 73.4594 45.9935 73.4013 45.8741C73.3439 45.7547 73.2659 45.6643 73.1674 45.603C73.0695 45.5416 72.9599 45.5109 72.8385 45.5109C72.7171 45.5109 72.6071 45.5416 72.5086 45.603C72.4107 45.6643 72.3327 45.7547 72.2747 45.8741C72.2172 45.9935 72.1885 46.14 72.1885 46.3136C72.1885 46.4872 72.2172 46.6337 72.2747 46.7531C72.3327 46.8725 72.4107 46.9629 72.5086 47.0242C72.6071 47.0856 72.7171 47.1162 72.8385 47.1162C72.9599 47.1162 73.0695 47.0856 73.1674 47.0242C73.2659 46.9629 73.3439 46.8725 73.4013 46.7531C73.4594 46.6337 73.4884 46.4872 73.4884 46.3136ZM75.4471 45.3113H75.6898V46.6386C75.6898 46.7756 75.6575 46.898 75.5929 47.0056C75.529 47.1126 75.4386 47.1972 75.3218 47.2591C75.205 47.3205 75.0679 47.3512 74.9107 47.3512C74.7534 47.3512 74.6164 47.3205 74.4996 47.2591C74.3828 47.1972 74.292 47.1126 74.2274 47.0056C74.1635 46.898 74.1315 46.7756 74.1315 46.6386V45.3113H74.3743V46.619C74.3743 46.7169 74.3958 46.804 74.4389 46.8803C74.4819 46.956 74.5433 47.0157 74.6229 47.0595C74.7032 47.1025 74.7991 47.1241 74.9107 47.1241C75.0223 47.1241 75.1182 47.1025 75.1984 47.0595C75.2787 47.0157 75.3401 46.956 75.3825 46.8803C75.4255 46.804 75.4471 46.7169 75.4471 46.619V45.3113ZM76.065 45.5266V45.3113H77.5685V45.5266H76.9381V47.3159H76.6953V45.5266H76.065Z" fill="#902968"/>
<path d="M75.082 36.7899C75.572 36.7099 75.852 36.4199 75.932 35.9399C76.012 36.4199 76.292 36.7099 76.782 36.7899C76.292 36.8699 76.002 37.1499 75.932 37.6399C75.852 37.1599 75.572 36.8799 75.082 36.7899Z" fill="url(#paint22_linear_349_581)"/>
<path d="M68.6305 67.4899C53.7205 67.4899 41.6405 55.3999 41.6405 40.4999C41.6405 25.5899 53.7205 13.5099 68.6305 13.5099C83.5405 13.5099 95.6205 25.5899 95.6205 40.4999C95.6205 46.8399 93.4305 52.6799 89.7605 57.2799L84.2905 50.1099C86.0105 47.3199 87.0005 44.0199 87.0005 40.4999C87.0005 30.3499 78.7705 22.1199 68.6305 22.1199C62.1905 22.1199 56.5305 25.4299 53.2505 30.4399H56.3805C56.8305 30.4399 57.2105 30.7499 57.3105 31.1799L58.4905 34.8499H72.2705L72.3205 34.8599L78.0805 34.8499C78.4605 34.8999 78.8405 35.0399 79.1205 35.2699C79.1805 35.3199 79.3205 35.4099 79.2805 35.4299C76.5905 36.8899 79.3405 35.4999 79.3705 35.5299C79.6105 35.8299 79.7405 36.1999 79.6905 36.6199L78.9405 43.0799L78.5205 46.6299C78.4105 47.5199 77.6205 48.1999 76.7205 48.1999H64.8305C64.6805 48.2099 64.5205 48.1999 64.3605 48.1899C63.2205 48.1199 62.2305 48.1799 61.3105 47.4999L62.3305 46.8899C62.3605 46.8699 62.3805 46.8299 62.3705 46.7999C62.3605 46.7599 62.3405 46.7299 62.3005 46.7299L61.3805 46.5499L62.6405 44.8299C62.6605 44.7999 62.6605 44.7499 62.6305 44.7199C62.6005 44.6899 62.5505 44.6799 62.5205 44.7099L60.2605 46.2899C60.1105 46.0399 59.9605 45.7499 59.8105 45.4299L55.6805 32.3499H52.1505C50.9305 34.7999 50.2505 37.5699 50.2505 40.4899C50.2505 50.6299 58.4805 58.8599 68.6205 58.8599C71.1505 58.8599 73.5705 58.3499 75.7705 57.4199L109.471 83.1399L97.5805 67.5499C104.201 60.4699 108.261 50.9599 108.261 40.4999C108.261 18.5999 90.5105 0.859863 68.6205 0.859863C67.6505 0.859863 66.7005 0.889869 65.7505 0.959869C65.5605 0.979869 65.3705 0.989863 65.1905 0.999863C65.0005 1.01986 64.8105 1.02986 64.6205 1.05986C64.3205 1.08986 64.0305 1.11987 63.7405 1.15987C63.5405 1.17987 63.3505 1.19986 63.1605 1.22986C62.7905 1.27986 62.4305 1.33986 62.0705 1.39986C61.9405 1.41986 61.8105 1.43986 61.6905 1.46986C61.6605 1.46986 61.6305 1.47986 61.6105 1.47986C61.2805 1.53986 60.9605 1.59987 60.6405 1.65987C60.1505 1.75987 59.6705 1.86986 59.2005 1.97986C58.9905 2.02986 58.7905 2.08986 58.5805 2.13986C58.3705 2.19986 58.1605 2.24986 57.9405 2.30986C57.7305 2.36986 57.5205 2.42987 57.3105 2.48987L57.3005 2.49986C57.0905 2.55986 56.8805 2.61987 56.6705 2.68987C56.4605 2.75987 56.2505 2.82986 56.0405 2.89986C55.8505 2.96986 55.6505 3.02987 55.4605 3.09987C55.4405 3.10987 55.4305 3.10986 55.4205 3.10986C55.2105 3.17986 55.0105 3.25986 54.8105 3.32986C54.5705 3.41986 54.3305 3.50987 54.1005 3.59987C53.9305 3.66987 53.7605 3.72986 53.5905 3.80986C53.3905 3.88986 53.1905 3.96986 53.0005 4.05986C52.8905 4.10986 52.7805 4.14986 52.6805 4.19986C52.5605 4.25986 52.4505 4.30986 52.3205 4.35986C52.2905 4.37986 52.2505 4.38987 52.2105 4.40987C51.8805 4.55987 51.5405 4.71987 51.2105 4.87987C51.0505 4.95987 50.8905 5.03986 50.7305 5.11986C50.5405 5.20986 50.3505 5.30987 50.1605 5.40987C50.0205 5.47987 49.8805 5.55986 49.7405 5.63986C49.5905 5.70986 49.4605 5.78986 49.3205 5.86986C49.0005 6.04986 48.6805 6.23986 48.3605 6.42986C47.9905 6.64986 47.6205 6.87986 47.2605 7.11986C47.0805 7.22986 46.8905 7.34986 46.7105 7.46986C46.5005 7.61986 46.2905 7.74986 46.0805 7.89986C45.9305 8.00986 45.7905 8.10987 45.6405 8.20987C45.4605 8.32987 45.2905 8.45986 45.1205 8.58986C44.9505 8.71986 44.7705 8.84986 44.6005 8.97986C44.3305 9.18986 44.0505 9.39986 43.7905 9.61986C43.6705 9.70986 43.5405 9.81986 43.4305 9.91986C42.4905 10.6999 41.5805 11.5199 40.7105 12.3799C40.5605 12.5199 40.4305 12.6599 40.2905 12.7999L40.2605 12.8299C39.8405 13.2699 0.810537 12.4099 0.410537 12.8599C0.270537 13.0099 38.7505 14.4699 38.6105 14.6299C38.4605 14.7999 38.3105 14.9799 38.1605 15.1599C37.9905 15.3699 37.8205 15.5699 37.6505 15.7799C37.5005 15.9799 37.3405 16.1599 37.1905 16.3699C37.0405 16.5699 36.8905 16.7699 36.7405 16.9599C36.5905 17.1699 36.4405 17.3699 36.3005 17.5699C36.1505 17.7699 36.0205 17.9799 35.8805 18.1799C35.7505 18.3599 35.6205 18.5499 35.5005 18.7399C35.4805 18.7699 35.4705 18.7899 35.4605 18.8099C35.3405 18.9899 35.2105 19.1799 35.1005 19.3699C34.9405 19.6199 34.7805 19.8799 34.6305 20.1299C34.5305 20.2999 34.4305 20.4599 34.3305 20.6299C34.3005 20.6799 34.2705 20.7399 34.2405 20.7899C34.1305 20.9699 34.0305 21.1599 33.9305 21.3399C33.9205 21.3599 33.9105 21.3799 33.9005 21.3999C33.7905 21.6099 33.6705 21.8199 33.5705 22.0299C33.5605 22.0299 33.5605 22.0399 33.5605 22.0399C33.4505 22.2499 33.3405 22.4499 33.2405 22.6499C33.0105 23.1099 32.7805 23.5799 32.5705 24.0599C32.4605 24.2899 32.3605 24.5199 32.2605 24.7499H32.2505C31.9005 24.9499 5.06054 25.7499 5.01054 25.8699C5.01054 25.9599 31.5705 26.3499 31.5705 26.4399C31.4905 26.6599 31.4105 26.8699 31.3305 27.0899C31.3005 27.1699 31.2705 27.2599 31.2405 27.3499C31.1505 27.5999 31.0605 27.8499 30.9805 28.0999C30.9105 28.3099 30.8505 28.5199 30.7805 28.7399C30.6805 29.0699 30.5805 29.3999 30.4805 29.7399C30.4205 29.9499 30.3605 30.1599 30.3005 30.3799C30.2805 30.4499 30.2605 30.5299 30.2405 30.6099C30.1905 30.8099 30.1405 31.0199 30.0905 31.2199C30.0805 31.2699 30.0705 31.3199 30.0605 31.3699C30.0005 31.5999 29.9505 31.8199 29.9105 32.0399C29.9005 32.0699 29.8905 32.0999 29.8905 32.1399C29.8305 32.4099 29.7705 32.6799 29.7205 32.9499C29.6605 33.2399 29.6105 33.5299 29.5605 33.8199C29.5105 34.0899 29.4705 34.3699 29.4305 34.6499C29.3905 34.9199 29.3505 35.1899 29.3205 35.4599C29.3205 35.4799 29.3105 35.4899 29.3105 35.4999C29.2805 35.7199 29.2505 35.9399 29.2305 36.1599C29.2205 36.2599 29.2105 36.3599 29.2005 36.4499C29.2005 36.4599 29.2005 36.4599 29.2005 36.4599C29.1805 36.7199 29.1505 36.9799 29.1305 37.2399C29.1105 37.5299 29.0905 37.8199 29.0705 38.1199C29.0505 38.3999 29.0405 38.6899 29.0305 38.9799V38.9899C29.0205 39.2899 29.0105 39.5799 29.0105 39.8799C29.0005 39.9999 8.53054 40.4299 8.53054 40.5199C8.53054 40.6299 29.0105 40.7499 29.0105 40.8599C29.0105 40.9899 29.0205 41.1099 29.0205 41.2299C29.0305 41.6699 29.0405 42.1199 29.0605 42.5499C29.0705 42.7199 29.0805 42.8899 29.0905 43.0599C29.1005 43.2299 29.1105 43.3899 29.1205 43.5599C29.1305 43.6799 29.1405 43.7899 29.1505 43.8999C29.1705 44.1199 29.1905 44.3499 29.2105 44.5699C29.2305 44.7299 29.2505 44.8899 29.2705 45.0599C29.2905 45.2099 29.3005 45.3399 29.3205 45.4799C29.3405 45.5999 29.3505 45.7099 29.3605 45.8299C29.3905 46.0199 29.4205 46.1999 29.4405 46.3899C29.4605 46.5399 29.4905 46.6899 29.5105 46.8399C29.5305 46.9899 29.5605 47.1399 29.5905 47.2899C29.6405 47.5899 29.6905 47.8899 29.7505 48.1899C29.7505 48.5199 20.5705 48.6899 20.6405 49.0199C20.7005 49.2799 30.0805 49.7099 30.1505 49.9699C30.1905 50.1499 30.2405 50.3299 30.2805 50.5199C30.3205 50.6999 30.3705 50.8799 30.4305 51.0599C30.5305 51.4199 30.6405 51.7899 30.7505 52.1399C30.8105 52.3499 30.8805 52.5499 30.9505 52.7599C30.9605 52.7799 30.9605 52.7999 30.9705 52.8299C31.0405 53.0099 31.1505 53.3499 31.1805 53.4399C31.1905 53.4499 31.1905 53.4499 31.1905 53.4599C-20.0695 56.8299 31.7705 55.0599 32.1005 55.8399C32.1205 55.8799 32.1305 55.9099 32.1405 55.9499C32.3305 56.3899 32.5205 56.8299 32.7305 57.2699C32.7505 57.3199 32.7705 57.3599 32.8005 57.4099C32.8805 57.5799 32.9705 57.7499 33.0505 57.9199C33.1305 58.0899 33.2105 58.2599 33.3005 58.4299C33.3805 58.5999 33.4705 58.7599 33.5605 58.9299C33.5705 58.9499 33.5805 58.9699 33.5905 58.9899C33.7605 59.3099 33.9305 59.6299 34.1005 59.9399C34.4405 60.5999 22.3605 61.2099 22.7705 61.8399C22.9405 62.0999 35.4305 62.3899 35.7705 62.6399C35.7805 62.6499 35.7805 62.6499 35.7805 62.6499C35.9205 62.8499 36.0505 63.0499 36.1905 63.2499C36.3305 63.4499 36.4705 63.6399 36.6105 63.8399C36.6205 63.8499 36.6305 63.8599 36.6305 63.8699C36.9005 64.2499 37.1905 64.6199 37.4805 64.9899C37.6805 65.2399 37.8905 65.4999 38.0905 65.7499C38.3405 66.0499 38.6005 66.3499 38.8605 66.6499C39.0205 66.8299 39.1805 67.0099 39.3405 67.1899V67.1999C39.3405 67.4099 10.9105 68.5799 10.9105 68.7899C11.1705 69.0699 40.3605 68.3699 40.7205 68.6399C40.7305 68.6399 40.7305 68.6399 40.7305 68.6399C40.9505 68.8599 41.1805 69.0799 41.4105 69.2999C41.6405 69.5199 41.8705 69.7299 42.1005 69.9399C42.3305 70.1499 42.5705 70.3599 42.8105 70.5699C43.0305 70.7499 43.2505 70.9399 43.4705 71.1199C43.4905 71.1399 43.5105 71.1599 43.5405 71.1799C43.7905 71.3799 44.0305 71.5799 44.2805 71.7699C44.5305 71.9699 44.7805 72.1599 45.0305 72.3499C45.2905 72.5399 45.5405 72.7199 45.8005 72.9099C46.0405 73.0799 46.2705 73.2399 46.5205 73.4099C46.5405 73.4299 46.5605 73.4399 46.5805 73.4499C47.1005 73.7999 47.6405 74.1499 48.1905 74.4799C48.4605 74.6399 48.7405 74.7999 49.0105 74.9599C49.2705 75.1099 49.5305 75.2599 49.7905 75.3999C49.8105 75.4099 49.8205 75.4199 49.8505 75.4299C50.1305 75.5799 50.4105 75.7299 50.7005 75.8699C51.2605 76.1599 51.8405 76.4399 52.4205 76.6999C52.7205 76.8299 53.0105 76.9599 53.3005 77.0799C53.6005 77.1999 53.9005 77.3299 54.1905 77.4399C54.4905 77.5599 54.7905 77.6699 55.0905 77.7799C55.4005 77.8899 55.7005 77.9999 56.0005 78.0999C56.3005 78.1999 56.5905 78.2899 56.8905 78.3799C57.0905 78.4399 57.2805 78.4999 57.4805 78.5599C57.7505 78.6399 58.0205 78.7199 58.2905 78.7899C59.0905 78.9999 59.8905 79.1899 60.7105 79.3599C60.9805 79.4199 61.2605 79.4699 61.5405 79.5199C63.8605 79.9399 66.2405 80.1599 68.6805 80.1599C73.9905 80.1599 79.0605 79.1099 83.6905 77.2099L70.8405 67.4099C70.0805 67.4499 69.3605 67.4899 68.6305 67.4899ZM59.2505 48.5299L60.5905 47.0699C60.6105 47.0499 60.6205 47.0099 60.6105 46.9799C60.6005 46.9499 60.5805 46.9299 60.5405 46.9199L59.8705 46.7899L60.3705 46.4399L62.2005 45.1599L61.1805 46.5499C61.1605 46.5799 61.1605 46.6099 61.1705 46.6399C61.1805 46.6699 61.2105 46.6899 61.2405 46.6999L62.0705 46.8699L61.1905 47.3899L59.2505 48.5299ZM63.8005 52.0799C63.0205 52.0799 62.3805 51.4399 62.3805 50.6599C62.3805 49.8799 63.0205 49.2399 63.8005 49.2399C64.5905 49.2399 65.2205 49.8799 65.2205 50.6599C65.2205 51.4399 64.5905 52.0799 63.8005 52.0799ZM72.6005 51.9699C71.8105 51.9699 71.1805 51.3299 71.1805 50.5499C71.1805 49.7599 71.8105 49.1299 72.6005 49.1299C73.3805 49.1299 74.0205 49.7599 74.0205 50.5499C74.0205 51.3399 73.3805 51.9699 72.6005 51.9699ZM72.7405 33.8599C72.6805 33.5199 72.4805 33.3199 72.1305 33.2599C72.4805 33.1999 72.6805 32.9999 72.7405 32.6599C72.8005 33.0099 73.0005 33.2099 73.3405 33.2599C72.9905 33.3099 72.7905 33.5099 72.7405 33.8599ZM74.2905 30.4599C74.2005 29.9699 73.9205 29.6899 73.4305 29.6099C73.9205 29.5299 74.2005 29.2399 74.2905 28.7599C74.3705 29.2499 74.6505 29.5299 75.1405 29.6099C74.6505 29.6799 74.3605 29.9599 74.2905 30.4599ZM75.2405 31.9199C76.3405 31.7299 76.9905 31.0799 77.1805 29.9799C77.3705 31.0799 78.0105 31.7399 79.1205 31.9199C78.0005 32.0999 77.3505 32.7399 77.1805 33.8599C76.9805 32.7599 76.3305 32.1199 75.2405 31.9199ZM80.0905 38.1399L80.0505 36.2799C80.0405 35.9899 79.9605 35.7099 79.8205 35.4699C79.7905 35.4099 79.7205 35.3199 79.7205 35.3199C83.1805 33.6199 79.6605 35.2499 79.6305 35.2099C79.4705 35.0199 79.2605 34.8699 79.0205 34.7699L77.5005 34.1199L83.3905 33.2999L80.0905 38.1399Z" fill="url(#paint23_linear_349_581)"/>
<path d="M62.6378 44.72C62.6078 44.69 62.5578 44.68 62.5178 44.71L60.2578 46.29C60.2878 46.34 60.3178 46.39 60.3478 46.44L62.1778 45.16L61.1578 46.56C61.1378 46.58 61.1378 46.62 61.1478 46.65C61.1578 46.68 61.1878 46.7 61.2078 46.7L62.0378 46.87L61.1578 47.39C61.2078 47.43 61.2578 47.47 61.3078 47.51L62.3278 46.9C62.3578 46.88 62.3778 46.84 62.3678 46.81C62.3578 46.77 62.3278 46.75 62.2978 46.74L61.3778 46.55L62.6278 44.83C62.6778 44.8 62.6678 44.75 62.6378 44.72Z" fill="#902968"/>
<path d="M62.6397 44.72C62.6097 44.69 62.5597 44.68 62.5197 44.71L60.2597 46.29L59.5897 46.76C59.5597 46.78 59.5497 46.82 59.5497 46.85C59.5597 46.89 59.5897 46.91 59.6197 46.92L60.3397 47.07L58.6997 48.85C58.6697 48.88 58.6697 48.93 58.6897 48.97C58.6997 48.99 58.7197 49 58.7397 49C58.7597 49.01 58.7897 49 58.7997 48.99L61.2997 47.51L62.3197 46.9C62.3497 46.88 62.3697 46.84 62.3597 46.81C62.3497 46.77 62.3197 46.75 62.2897 46.74L61.3697 46.55L62.6197 44.83C62.6797 44.8 62.6697 44.75 62.6397 44.72ZM61.1697 46.56C61.1497 46.58 61.1497 46.62 61.1597 46.65C61.1697 46.68 61.1997 46.7 61.2197 46.7L62.0497 46.87L61.1697 47.39L59.2497 48.53L60.5897 47.07C60.6097 47.05 60.6197 47.01 60.6097 46.98C60.5997 46.95 60.5697 46.93 60.5397 46.92L59.8697 46.78L60.3597 46.44L62.1897 45.16L61.1697 46.56Z" fill="#902968"/>
<defs>
<linearGradient id="paint0_linear_349_581" x1="125.679" y1="33.9287" x2="152.089" y2="33.9287" gradientUnits="userSpaceOnUse">
<stop stop-color="#D1295F"/>
<stop offset="1" stop-color="#4C2971"/>
</linearGradient>
<linearGradient id="paint1_linear_349_581" x1="156.422" y1="33.9287" x2="182.832" y2="33.9287" gradientUnits="userSpaceOnUse">
<stop stop-color="#D1295F"/>
<stop offset="1" stop-color="#4C2971"/>
</linearGradient>
<linearGradient id="paint2_linear_349_581" x1="181.58" y1="33.9287" x2="210.021" y2="33.9287" gradientUnits="userSpaceOnUse">
<stop stop-color="#D1295F"/>
<stop offset="1" stop-color="#4C2971"/>
</linearGradient>
<linearGradient id="paint3_linear_349_581" x1="212.875" y1="33.9287" x2="233.191" y2="33.9287" gradientUnits="userSpaceOnUse">
<stop stop-color="#D1295F"/>
<stop offset="1" stop-color="#4C2971"/>
</linearGradient>
<linearGradient id="paint4_linear_349_581" x1="237.341" y1="33.9287" x2="245.467" y2="33.9287" gradientUnits="userSpaceOnUse">
<stop stop-color="#D1295F"/>
<stop offset="1" stop-color="#4C2971"/>
</linearGradient>
<linearGradient id="paint5_linear_349_581" x1="252.117" y1="33.9287" x2="276.495" y2="33.9287" gradientUnits="userSpaceOnUse">
<stop stop-color="#D1295F"/>
<stop offset="1" stop-color="#4C2971"/>
</linearGradient>
<linearGradient id="paint6_linear_349_581" x1="283.147" y1="33.9287" x2="291.273" y2="33.9287" gradientUnits="userSpaceOnUse">
<stop stop-color="#D1295F"/>
<stop offset="1" stop-color="#4C2971"/>
</linearGradient>
<linearGradient id="paint7_linear_349_581" x1="296.196" y1="33.9287" x2="316.511" y2="33.9287" gradientUnits="userSpaceOnUse">
<stop stop-color="#D1295F"/>
<stop offset="1" stop-color="#4C2971"/>
</linearGradient>
<linearGradient id="paint8_linear_349_581" x1="319.16" y1="33.9287" x2="347.602" y2="33.9287" gradientUnits="userSpaceOnUse">
<stop stop-color="#D1295F"/>
<stop offset="1" stop-color="#4C2971"/>
</linearGradient>
<linearGradient id="paint9_linear_349_581" x1="125.157" y1="62.8112" x2="139.886" y2="62.8112" gradientUnits="userSpaceOnUse">
<stop stop-color="#D1295F"/>
<stop offset="1" stop-color="#4C2971"/>
</linearGradient>
<linearGradient id="paint10_linear_349_581" x1="144.081" y1="62.8111" x2="155.864" y2="62.8111" gradientUnits="userSpaceOnUse">
<stop stop-color="#D1295F"/>
<stop offset="1" stop-color="#4C2971"/>
</linearGradient>
<linearGradient id="paint11_linear_349_581" x1="161.504" y1="62.8111" x2="165.432" y2="62.8111" gradientUnits="userSpaceOnUse">
<stop stop-color="#D1295F"/>
<stop offset="1" stop-color="#4C2971"/>
</linearGradient>
<linearGradient id="paint12_linear_349_581" x1="170.478" y1="62.8111" x2="181.279" y2="62.8111" gradientUnits="userSpaceOnUse">
<stop stop-color="#D1295F"/>
<stop offset="1" stop-color="#4C2971"/>
</linearGradient>
<linearGradient id="paint13_linear_349_581" x1="186.486" y1="62.8111" x2="199.251" y2="62.8111" gradientUnits="userSpaceOnUse">
<stop stop-color="#D1295F"/>
<stop offset="1" stop-color="#4C2971"/>
</linearGradient>
<linearGradient id="paint14_linear_349_581" x1="213.829" y1="62.8111" x2="224.63" y2="62.8111" gradientUnits="userSpaceOnUse">
<stop stop-color="#D1295F"/>
<stop offset="1" stop-color="#4C2971"/>
</linearGradient>
<linearGradient id="paint15_linear_349_581" x1="229.837" y1="62.8111" x2="242.601" y2="62.8111" gradientUnits="userSpaceOnUse">
<stop stop-color="#D1295F"/>
<stop offset="1" stop-color="#4C2971"/>
</linearGradient>
<linearGradient id="paint16_linear_349_581" x1="248.71" y1="62.8111" x2="258.529" y2="62.8111" gradientUnits="userSpaceOnUse">
<stop stop-color="#D1295F"/>
<stop offset="1" stop-color="#4C2971"/>
</linearGradient>
<linearGradient id="paint17_linear_349_581" x1="263.167" y1="62.8111" x2="273.968" y2="62.8111" gradientUnits="userSpaceOnUse">
<stop stop-color="#D1295F"/>
<stop offset="1" stop-color="#4C2971"/>
</linearGradient>
<linearGradient id="paint18_linear_349_581" x1="279.175" y1="62.8111" x2="291.941" y2="62.8111" gradientUnits="userSpaceOnUse">
<stop stop-color="#D1295F"/>
<stop offset="1" stop-color="#4C2971"/>
</linearGradient>
<linearGradient id="paint19_linear_349_581" x1="294.23" y1="62.8111" x2="307.976" y2="62.8111" gradientUnits="userSpaceOnUse">
<stop stop-color="#D1295F"/>
<stop offset="1" stop-color="#4C2971"/>
</linearGradient>
<linearGradient id="paint20_linear_349_581" x1="312.969" y1="62.8111" x2="324.752" y2="62.8111" gradientUnits="userSpaceOnUse">
<stop stop-color="#D1295F"/>
<stop offset="1" stop-color="#4C2971"/>
</linearGradient>
<linearGradient id="paint21_linear_349_581" x1="330.028" y1="62.8111" x2="339.847" y2="62.8111" gradientUnits="userSpaceOnUse">
<stop stop-color="#D1295F"/>
<stop offset="1" stop-color="#4C2971"/>
</linearGradient>
<linearGradient id="paint22_linear_349_581" x1="75.0853" y1="36.7929" x2="76.7938" y2="36.7929" gradientUnits="userSpaceOnUse">
<stop stop-color="#D1295F"/>
<stop offset="1" stop-color="#4C2971"/>
</linearGradient>
<linearGradient id="paint23_linear_349_581" x1="0.399037" y1="41.9999" x2="109.483" y2="41.9999" gradientUnits="userSpaceOnUse">
<stop stop-color="#D1295F"/>
<stop offset="1" stop-color="#4C2971"/>
</linearGradient>
</defs>
</svg>
